<svg xmlns="http://www.w3.org/2000/svg" width="64" height="64"><rect rx="14" width="64" height="64" fill="#ffffff"/><path d="M50 22c-1.3.6-2.7 1-4.2 1.2 1.5-.9 2.6-2.3 3.2-4-1.4.8-3 1.4-4.7 1.7A7.3 7.3 0 0 0 32 26c0 .6.1 1.2.2 1.8-6-.3-11.3-3.2-14.9-7.6-.6 1.1-1 2.3-1 3.6 0 2.5 1.3 4.7 3.2 6-1.2 0-2.3-.4-3.3-.9v.1c0 3.5 2.5 6.4 5.8 7.1-.6.2-1.3.3-2 .3-.5 0-1 0-1.4-.1 1 3 3.7 5.1 7 5.2A14.7 14.7 0 0 1 14 46a20.7 20.7 0 0 0 11.2 3.3c13.4 0 20.8-11.1 20.8-20.8v-.9c1.4-1 2.6-2.3 3.6-3.7z" fill="#2a6c34"/></svg>